# xmcd
# 
# Track frame offsets:
#     150
#     8104
#     27466
#     43229
#     57356
#     85021
#     102334
#     123806
#     144718
#     164913
#     182297
#     201189
#     210941
#     230485
#     249585
# 
# Disc length: 3504
# 
# Revision: 0
# Processed by: cddbd v1.5.2PL0 Copyright (c) Steve Scherf et al.
# Submitted via: fre:ac v1.0.17
# 
DISCID=cc0dae0f
DTITLE=Alicia Keys - The Diary of Alicia Keys
DYEAR=2003
DGENRE=R&B
TTITLE0=Harlem's Nocturne
TTITLE1=Karma
TTITLE2=Heartburn
TTITLE3=Alicia Keys - If I Was Your Woman-Walk on By
TTITLE4=You Don't Know My Name
TTITLE5=If I Ain't Got You
TTITLE6=Dairy featuring Tony!Toni!Tone!
TTITLE7=Dragon Days
TTITLE8=Wake Up
TTITLE9=So Simple
TTITLE10=When You Really Love Someone
TTITLE11=Feeling U, Feeling Me [Interlude]
TTITLE12=Slow Down
TTITLE13=Samsonite Man
TTITLE14=Nobody Not Really
EXTD=
EXTT0=
EXTT1=
EXTT2=
EXTT3=
EXTT4=
EXTT5=
EXTT6=
EXTT7=
EXTT8=
EXTT9=
EXTT10=
EXTT11=
EXTT12=
EXTT13=
EXTT14=
PLAYORDER=
